<svg width="65" height="64" viewBox="0 0 65 64" fill="none" xmlns="http://www.w3.org/2000/svg">
<ellipse cx="32.6847" cy="32.0561" rx="31.8424" ry="31.528" fill="#2E331F" fill-opacity="0.8"/>
<path opacity="0.5" d="M26.3333 24C25.9797 24 25.6406 23.8595 25.3905 23.6095C25.1405 23.3594 25 23.0203 25 22.6667V20C25 19.6464 25.1405 19.3072 25.3905 19.0572C25.6406 18.8071 25.9797 18.6667 26.3333 18.6667C26.687 18.6667 27.0261 18.8071 27.2761 19.0572C27.5262 19.3072 27.6667 19.6464 27.6667 20V22.6667C27.6667 23.0201 27.5264 23.359 27.2766 23.609C27.0269 23.859 26.6881 23.9996 26.3347 24H26.3333ZM39.6667 24C39.313 24 38.9739 23.8595 38.7239 23.6095C38.4738 23.3594 38.3333 23.0203 38.3333 22.6667V20C38.3333 19.6464 38.4738 19.3072 38.7239 19.0572C38.9739 18.8071 39.313 18.6667 39.6667 18.6667C40.0203 18.6667 40.3594 18.8071 40.6095 19.0572C40.8595 19.3072 41 19.6464 41 20V22.6667C41 23.0201 40.8597 23.359 40.6099 23.609C40.3602 23.859 40.0214 23.9996 39.668 24H39.6667Z" fill="#FFC400"/>
<path d="M42.3333 21.3333H41V22.6667C41 23.0203 40.8595 23.3594 40.6095 23.6095C40.3594 23.8595 40.0203 24 39.6667 24C39.313 24 38.9739 23.8595 38.7238 23.6095C38.4738 23.3594 38.3333 23.0203 38.3333 22.6667V21.3333H27.6667V22.6667C27.6667 23.0203 27.5262 23.3594 27.2761 23.6095C27.0261 23.8595 26.6869 24 26.3333 24C25.9797 24 25.6406 23.8595 25.3905 23.6095C25.1405 23.3594 25 23.0203 25 22.6667V21.3333H23.6667C22.6058 21.3333 21.5884 21.7548 20.8382 22.5049C20.0881 23.2551 19.6667 24.2725 19.6667 25.3333V28H46.3333V25.3333C46.3333 24.2725 45.9119 23.2551 45.1618 22.5049C44.4116 21.7548 43.3942 21.3333 42.3333 21.3333Z" fill="#FFC400"/>
<path d="M26.3333 34.6667C27.0697 34.6667 27.6667 34.0697 27.6667 33.3333C27.6667 32.597 27.0697 32 26.3333 32C25.597 32 25 32.597 25 33.3333C25 34.0697 25.597 34.6667 26.3333 34.6667Z" fill="#FFC400"/>
<path d="M26.3333 40C27.0697 40 27.6667 39.403 27.6667 38.6667C27.6667 37.9303 27.0697 37.3333 26.3333 37.3333C25.597 37.3333 25 37.9303 25 38.6667C25 39.403 25.597 40 26.3333 40Z" fill="#FFC400"/>
<path d="M33 34.6667C33.7364 34.6667 34.3333 34.0697 34.3333 33.3333C34.3333 32.597 33.7364 32 33 32C32.2636 32 31.6667 32.597 31.6667 33.3333C31.6667 34.0697 32.2636 34.6667 33 34.6667Z" fill="#FFC400"/>
<path d="M33 40C33.7364 40 34.3333 39.403 34.3333 38.6667C34.3333 37.9303 33.7364 37.3333 33 37.3333C32.2636 37.3333 31.6667 37.9303 31.6667 38.6667C31.6667 39.403 32.2636 40 33 40Z" fill="#FFC400"/>
<path d="M39.6667 34.6667C40.4031 34.6667 41 34.0697 41 33.3333C41 32.597 40.4031 32 39.6667 32C38.9303 32 38.3333 32.597 38.3333 33.3333C38.3333 34.0697 38.9303 34.6667 39.6667 34.6667Z" fill="#FFC400"/>
<path d="M39.6667 40C40.4031 40 41 39.403 41 38.6667C41 37.9303 40.4031 37.3333 39.6667 37.3333C38.9303 37.3333 38.3333 37.9303 38.3333 38.6667C38.3333 39.403 38.9303 40 39.6667 40Z" fill="#FFC400"/>
<path opacity="0.5" d="M19.6667 28V41.3333C19.6667 42.3942 20.0881 43.4116 20.8382 44.1618C21.5884 44.9119 22.6058 45.3333 23.6667 45.3333H42.3333C43.3942 45.3333 44.4116 44.9119 45.1618 44.1618C45.9119 43.4116 46.3333 42.3942 46.3333 41.3333V28H19.6667ZM26.3333 40C25.9797 40 25.6406 39.8595 25.3905 39.6095C25.1405 39.3594 25 39.0203 25 38.6667C25 38.313 25.1405 37.9739 25.3905 37.7239C25.6406 37.4738 25.9797 37.3333 26.3333 37.3333C26.6869 37.3333 27.0261 37.4738 27.2761 37.7239C27.5262 37.9739 27.6667 38.313 27.6667 38.6667C27.6667 39.0203 27.5262 39.3594 27.2761 39.6095C27.0261 39.8595 26.6869 40 26.3333 40ZM26.3333 34.6667C25.9797 34.6667 25.6406 34.5262 25.3905 34.2761C25.1405 34.0261 25 33.687 25 33.3333C25 32.9797 25.1405 32.6406 25.3905 32.3905C25.6406 32.1405 25.9797 32 26.3333 32C26.6869 32 27.0261 32.1405 27.2761 32.3905C27.5262 32.6406 27.6667 32.9797 27.6667 33.3333C27.6667 33.687 27.5262 34.0261 27.2761 34.2761C27.0261 34.5262 26.6869 34.6667 26.3333 34.6667ZM33 40C32.6464 40 32.3072 39.8595 32.0572 39.6095C31.8071 39.3594 31.6667 39.0203 31.6667 38.6667C31.6667 38.313 31.8071 37.9739 32.0572 37.7239C32.3072 37.4738 32.6464 37.3333 33 37.3333C33.3536 37.3333 33.6928 37.4738 33.9428 37.7239C34.1928 37.9739 34.3333 38.313 34.3333 38.6667C34.3333 39.0203 34.1928 39.3594 33.9428 39.6095C33.6928 39.8595 33.3536 40 33 40ZM33 34.6667C32.6464 34.6667 32.3072 34.5262 32.0572 34.2761C31.8071 34.0261 31.6667 33.687 31.6667 33.3333C31.6667 32.9797 31.8071 32.6406 32.0572 32.3905C32.3072 32.1405 32.6464 32 33 32C33.3536 32 33.6928 32.1405 33.9428 32.3905C34.1928 32.6406 34.3333 32.9797 34.3333 33.3333C34.3333 33.687 34.1928 34.0261 33.9428 34.2761C33.6928 34.5262 33.3536 34.6667 33 34.6667ZM39.6667 40C39.313 40 38.9739 39.8595 38.7238 39.6095C38.4738 39.3594 38.3333 39.0203 38.3333 38.6667C38.3333 38.313 38.4738 37.9739 38.7238 37.7239C38.9739 37.4738 39.313 37.3333 39.6667 37.3333C40.0203 37.3333 40.3594 37.4738 40.6095 37.7239C40.8595 37.9739 41 38.313 41 38.6667C41 39.0203 40.8595 39.3594 40.6095 39.6095C40.3594 39.8595 40.0203 40 39.6667 40ZM39.6667 34.6667C39.313 34.6667 38.9739 34.5262 38.7238 34.2761C38.4738 34.0261 38.3333 33.687 38.3333 33.3333C38.3333 32.9797 38.4738 32.6406 38.7238 32.3905C38.9739 32.1405 39.313 32 39.6667 32C40.0203 32 40.3594 32.1405 40.6095 32.3905C40.8595 32.6406 41 32.9797 41 33.3333C41 33.687 40.8595 34.0261 40.6095 34.2761C40.3594 34.5262 40.0203 34.6667 39.6667 34.6667Z" fill="#FFC400"/>
</svg>
