<svg width="64" height="64" viewBox="0 0 64 64" fill="none" xmlns="http://www.w3.org/2000/svg">
<circle cx="32" cy="32" r="32" fill="#162523" fill-opacity="0.8"/>
<path d="M37.3572 37.7142C38.7372 37.7142 39.8572 38.8342 39.8572 40.2142V43.0742L39.8457 43.2285C39.4029 46.2671 36.6743 47.7271 32.0957 47.7271C27.5343 47.7271 24.7615 46.2842 24.1629 43.2814L24.1429 43.0714V40.2142C24.1429 38.8342 25.2629 37.7142 26.6429 37.7142H37.3572ZM38.0629 29.1428H46.6429C48.0229 29.1428 49.1429 30.2628 49.1429 31.6428V34.5028L49.1315 34.6571C48.6886 37.6957 45.96 39.1557 41.3815 39.1557L41.1415 39.1528C40.9212 38.3699 40.4636 37.6745 39.8316 37.1625C39.1997 36.6506 38.4245 36.3472 37.6129 36.2942L37.3572 36.2857H36.04C36.7865 35.6837 37.3886 34.9221 37.802 34.0568C38.2153 33.1915 38.4294 32.2446 38.4286 31.2857C38.4286 30.5342 38.3 29.8142 38.0629 29.1428ZM17.3572 29.1428H25.9372C25.7 29.8142 25.5715 30.5342 25.5715 31.2857C25.5715 33.1857 26.3972 34.8957 27.7086 36.0714L27.96 36.2857H26.6429C24.84 36.2857 23.32 37.4999 22.8572 39.1571L22.81 39.1557C18.2486 39.1557 15.4757 37.7128 14.8772 34.7099L14.8572 34.4999V31.6428C14.8572 30.2628 15.9772 29.1428 17.3572 29.1428ZM32 26.2857C33.3261 26.2857 34.5979 26.8124 35.5356 27.7501C36.4733 28.6878 37 29.9596 37 31.2857C37 32.6117 36.4733 33.8835 35.5356 34.8212C34.5979 35.7589 33.3261 36.2857 32 36.2857C30.674 36.2857 29.4022 35.7589 28.4645 34.8212C27.5268 33.8835 27 32.6117 27 31.2857C27 29.9596 27.5268 28.6878 28.4645 27.7501C29.4022 26.8124 30.674 26.2857 32 26.2857ZM41.2857 17.7142C42.6118 17.7142 43.8836 18.241 44.8213 19.1787C45.759 20.1164 46.2857 21.3882 46.2857 22.7142C46.2857 24.0403 45.759 25.3121 44.8213 26.2498C43.8836 27.1874 42.6118 27.7142 41.2857 27.7142C39.9597 27.7142 38.6879 27.1874 37.7502 26.2498C36.8125 25.3121 36.2857 24.0403 36.2857 22.7142C36.2857 21.3882 36.8125 20.1164 37.7502 19.1787C38.6879 18.241 39.9597 17.7142 41.2857 17.7142ZM22.7143 17.7142C24.0404 17.7142 25.3122 18.241 26.2499 19.1787C27.1875 20.1164 27.7143 21.3882 27.7143 22.7142C27.7143 24.0403 27.1875 25.3121 26.2499 26.2498C25.3122 27.1874 24.0404 27.7142 22.7143 27.7142C21.3882 27.7142 20.1165 27.1874 19.1788 26.2498C18.2411 25.3121 17.7143 24.0403 17.7143 22.7142C17.7143 21.3882 18.2411 20.1164 19.1788 19.1787C20.1165 18.241 21.3882 17.7142 22.7143 17.7142Z" fill="#62FF54"/>
</svg>
