<svg width="64" height="64" viewBox="0 0 64 64" fill="none" xmlns="http://www.w3.org/2000/svg">
<circle cx="32" cy="32" r="32" fill="#162523" fill-opacity="0.8"/>
<path d="M47.4725 25.793L37.5546 24.3516L33.121 15.3633C32.9999 15.1172 32.8007 14.918 32.5546 14.7969C31.9374 14.4922 31.1874 14.7461 30.8788 15.3633L26.4452 24.3516L16.5272 25.793C16.2538 25.832 16.0038 25.961 15.8124 26.1563C15.581 26.3941 15.4535 26.7141 15.4579 27.0459C15.4623 27.3777 15.5982 27.6942 15.8358 27.9258L23.0116 34.9219L21.3163 44.8008C21.2765 45.0306 21.302 45.2669 21.3897 45.483C21.4774 45.6991 21.624 45.8863 21.8127 46.0234C22.0014 46.1604 22.2247 46.2418 22.4573 46.2584C22.6899 46.275 22.9226 46.2261 23.1288 46.1172L31.9999 41.4531L40.871 46.1172C41.1132 46.2461 41.3944 46.2891 41.664 46.2422C42.3436 46.125 42.8007 45.4805 42.6835 44.8008L40.9882 34.9219L48.164 27.9258C48.3593 27.7344 48.4882 27.4844 48.5272 27.211C48.6327 26.5274 48.1561 25.8945 47.4725 25.793Z" fill="#F1DE31"/>
</svg>
