<svg width="24" height="24" viewBox="0 0 24 24" fill="none" xmlns="http://www.w3.org/2000/svg">
<path d="M12 1.71429C17.6571 1.71429 22.2857 6.34286 22.2857 12C22.2857 17.6571 17.6571 22.2857 12 22.2857C6.34286 22.2857 1.71429 17.6571 1.71429 12C1.71429 6.34286 6.34286 1.71429 12 1.71429ZM12 0C5.4 0 0 5.4 0 12C0 18.6 5.4 24 12 24C18.6 24 24 18.6 24 12C24 5.4 18.6 0 12 0Z" fill="white"/>
<path d="M18.8571 11.1428H12.8571V5.14282H11.1429V11.1428H5.14285V12.8571H11.1429V18.8571H12.8571V12.8571H18.8571V11.1428Z" fill="white"/>
</svg>
