<svg width="24" height="24" viewBox="0 0 24 24" fill="none" xmlns="http://www.w3.org/2000/svg">
<rect x="0.5" y="0.5" width="23" height="23" rx="3.5" stroke="#FF3232"/>
<path d="M13.6 7.2001H16C16.48 7.2001 16.8 7.5201 16.8 8.0001V8.8001H6.4V8.0001C6.4 7.5201 6.8 7.2001 7.2 7.2001H9.6C9.76 6.3201 10.64 5.6001 11.6 5.6001C12.56 5.6001 13.44 6.3201 13.6 7.2001ZM10.4 7.2001H12.8C12.64 6.7201 12.08 6.4001 11.6 6.4001C11.12 6.4001 10.56 6.7201 10.4 7.2001ZM7.2 9.6001H16L15.28 17.6801C15.28 18.0801 14.88 18.4001 14.48 18.4001H8.72C8.32 18.4001 8 18.0801 7.92 17.6801L7.2 9.6001Z" fill="#FF3232"/>
</svg>
