<svg width="24" height="24" viewBox="0 0 24 24" fill="none" xmlns="http://www.w3.org/2000/svg">
<rect x="0.5" y="0.5" width="23" height="23" rx="3.5" stroke="#149E48"/>
<path d="M5.87556 14.3113L5.03111 17.9557C5.00198 18.089 5.00298 18.227 5.03403 18.3598C5.06509 18.4926 5.12542 18.6168 5.21061 18.7232C5.2958 18.8297 5.4037 18.9158 5.52643 18.9753C5.64917 19.0347 5.78363 19.066 5.92 19.0668C5.98354 19.0733 6.04757 19.0733 6.11111 19.0668L9.77778 18.2224L16.8178 11.2091L12.8889 7.28906L5.87556 14.3113Z" fill="#149E48"/>
<path d="M19.0311 7.69766L16.4089 5.07543C16.2365 4.90391 16.0032 4.80762 15.76 4.80762C15.5168 4.80762 15.2835 4.90391 15.1111 5.07543L13.6533 6.53321L17.5778 10.4577L19.0356 8.99988C19.1209 8.91414 19.1884 8.81241 19.2344 8.70053C19.2803 8.58865 19.3038 8.4688 19.3034 8.34785C19.303 8.22689 19.2787 8.10721 19.232 7.99564C19.1853 7.88407 19.117 7.78281 19.0311 7.69766Z" fill="#149E48"/>
</svg>
