<svg width="37" height="37" viewBox="0 0 37 37" fill="none" xmlns="http://www.w3.org/2000/svg">
<path d="M18.0394 0C8.09325 0 0 8.091 0 18.0382C0 27.9855 8.09325 36.0765 18.0394 36.0765C27.9855 36.0765 36.0788 27.9855 36.0788 18.0382C36.0788 8.091 27.9855 0 18.0394 0ZM18.0394 34.875C8.75587 34.875 1.20375 27.3218 1.20375 18.0382C1.20375 8.75475 8.75587 1.2015 18.0394 1.2015C27.3229 1.2015 34.875 8.75475 34.875 18.0382C34.875 27.3218 27.3229 34.875 18.0394 34.875Z" fill="#006EFF"/>
<path d="M21.9769 7.91313H18.9754C15.1526 7.87488 14.6644 10.2408 14.6644 12.8013V14.6631H12.9769C12.9006 14.6529 12.823 14.6605 12.7501 14.6851C12.6772 14.7098 12.611 14.7509 12.5566 14.8054C12.5022 14.8598 12.4611 14.926 12.4364 14.9989C12.4117 15.0718 12.4042 15.1494 12.4144 15.2256V18.6006C12.4042 18.6769 12.4117 18.7545 12.4364 18.8274C12.4611 18.9003 12.5022 18.9665 12.5566 19.0209C12.611 19.0753 12.6772 19.1165 12.7501 19.1411C12.823 19.1658 12.9006 19.1733 12.9769 19.1631H14.6644V27.6006C14.655 27.677 14.6632 27.7546 14.6884 27.8273C14.7136 27.9001 14.755 27.9661 14.8096 28.0204C14.8642 28.0747 14.9305 28.1157 15.0034 28.1405C15.0763 28.1652 15.1539 28.173 15.2303 28.1631H18.6671C18.999 28.2014 19.2679 27.9325 19.1621 27.6006L19.1644 19.1631H21.9769C22.0532 19.1733 22.1307 19.1658 22.2036 19.1411C22.2765 19.1165 22.3427 19.0753 22.3972 19.0209C22.4516 18.9665 22.4927 18.9003 22.5174 18.8274C22.542 18.7545 22.5496 18.6769 22.5394 18.6006V15.2256C22.5496 15.1494 22.542 15.0718 22.5174 14.9989C22.4927 14.926 22.4516 14.8598 22.3972 14.8054C22.3427 14.7509 22.2765 14.7098 22.2036 14.6851C22.1307 14.6605 22.0532 14.6529 21.9769 14.6631H19.161L19.1644 12.9756C19.2735 12.2568 19.2735 12.3738 19.9406 12.4131H21.9533C22.1096 12.3783 22.2761 12.3974 22.3931 12.2838C22.5101 12.1701 22.5776 12.0149 22.5383 11.8506V8.47563C22.5486 8.39942 22.5413 8.32184 22.5168 8.24894C22.4922 8.17604 22.4512 8.10979 22.3969 8.05535C22.3426 8.0009 22.2764 7.95975 22.2035 7.93508C22.1307 7.91041 22.0531 7.9029 21.9769 7.91313ZM21.375 11.2251L19.9643 11.1711C18.2171 11.1711 18.0709 12.1195 18.0709 13.0904L18.0664 15.2234C18.0662 15.3024 18.0817 15.3806 18.1118 15.4536C18.1419 15.5266 18.1861 15.593 18.2419 15.6489C18.2977 15.7048 18.364 15.7492 18.437 15.7794C18.5099 15.8097 18.5881 15.8253 18.6671 15.8253H21.4144V17.9988H18.6694C18.5099 17.9988 18.357 18.062 18.2442 18.1746C18.1313 18.2873 18.0678 18.4401 18.0675 18.5995L18.0664 27.0381H15.7894V18.6006C15.7894 18.2688 15.5633 17.9999 15.2303 17.9999H13.5394V15.8264H15.2303C15.3092 15.8265 15.3874 15.8111 15.4603 15.7809C15.5333 15.7508 15.5996 15.7066 15.6555 15.6509C15.768 15.5373 15.7883 15.3843 15.7883 15.2245V12.8001C15.7883 10.2779 16.2979 9.07638 18.9743 9.07638H21.3739V11.2251H21.375Z" fill="#006EFF"/>
</svg>
