<svg width="37" height="37" viewBox="0 0 37 37" fill="none" xmlns="http://www.w3.org/2000/svg">
<path d="M22.0714 13.4842C21.3086 13.4842 20.7439 13.6766 20.3017 13.9196C20.2309 13.6676 19.998 13.4831 19.7235 13.5382H16.3665C16.0346 13.4831 15.7657 13.752 15.8681 14.1007V26.4757C15.7657 26.7907 16.0346 27.0607 16.3665 27.0382H19.7235C20.0554 27.0607 20.3242 26.7907 20.3242 26.4589L20.3231 18.9799C20.322 18.9765 20.3096 18.6188 20.5357 18.3724C20.7169 18.1766 21.0285 18.0765 21.4594 18.0765C22.1771 18.0765 22.4966 18.3701 22.6159 19.0271V26.4589C22.4977 26.7907 22.7666 27.0607 23.0985 27.0382H26.6366C26.9685 27.0607 27.2374 26.7907 27.1181 26.4589V18.7774C27.2362 14.8714 24.4541 13.4842 22.0714 13.4842ZM26.0347 25.9132H23.6992V19.0271C23.6992 17.6985 22.8409 16.875 21.4605 16.875C20.6797 16.875 20.0722 17.1045 19.6537 17.5567C19.0721 18.1867 19.1171 18.9855 19.242 19.1632V25.9132H16.9672V14.6857H19.1227V15.0637C19.1219 15.1764 19.1528 15.2869 19.2119 15.3827C19.271 15.4786 19.356 15.5558 19.4571 15.6055C19.5581 15.6552 19.6711 15.6754 19.7831 15.6637C19.8951 15.6521 20.0016 15.6091 20.0902 15.5396L20.2477 15.4181C20.7034 15.0592 21.1747 14.6869 22.0725 14.6869C23.0017 14.6869 26.0359 14.9828 26.0359 18.7785V25.9132H26.0347ZM12.492 7.875C11.2297 7.875 10.2037 8.901 10.2037 10.1632C10.2037 11.4255 11.2297 12.4515 12.492 12.4515C13.7542 12.4515 14.7802 11.4255 14.7802 10.1632C14.7802 8.901 13.7542 7.875 12.492 7.875ZM12.492 11.25C11.8935 11.25 11.4052 10.7617 11.4052 10.1632C11.4052 9.56475 11.8935 9.0765 12.492 9.0765C13.0905 9.0765 13.5787 9.56475 13.5787 10.1632C13.5787 10.7617 13.0905 11.25 12.492 11.25ZM14.0985 13.4831H10.7595C10.4276 13.4831 10.1587 13.752 10.242 14.1007V26.4757C10.1587 26.7907 10.4276 27.0607 10.7595 27.0382H14.0985C14.4304 27.0607 14.6992 26.7907 14.6992 26.4589V14.0839C14.6992 13.9245 14.6359 13.7717 14.5233 13.6591C14.4106 13.5464 14.2578 13.4831 14.0985 13.4831ZM13.617 25.9132H11.3602V14.6857H13.617V25.9132Z" fill="#006EFF"/>
<path d="M18.117 0C8.16974 0 0.0787354 8.091 0.0787354 18.0382C0.0787354 27.9855 8.16974 36.0765 18.117 36.0765C28.0642 36.0765 36.1552 27.9855 36.1552 18.0382C36.1552 8.091 28.0642 0 18.117 0ZM18.117 34.875C8.83349 34.875 1.28024 27.3218 1.28024 18.0382C1.28024 8.75475 8.83349 1.2015 18.117 1.2015C27.4005 1.2015 34.9537 8.75475 34.9537 18.0382C34.9537 27.3218 27.4005 34.875 18.117 34.875Z" fill="#006EFF"/>
</svg>
