<svg width="37" height="36" viewBox="0 0 37 36" fill="none" xmlns="http://www.w3.org/2000/svg">
<path d="M18.1159 13.8461C17.3019 13.8461 16.5061 14.0875 15.8292 14.5398C15.1523 14.9921 14.6248 15.635 14.3133 16.3871C14.0017 17.1393 13.9202 17.9669 14.079 18.7654C14.2379 19.5639 14.6299 20.2973 15.2055 20.873C15.7811 21.4487 16.5145 21.8407 17.313 21.9995C18.1114 22.1583 18.939 22.0768 19.6911 21.7653C20.4432 21.4537 21.086 20.9261 21.5383 20.2492C21.9905 19.5723 22.2319 18.7765 22.2319 17.9624C22.2319 16.8707 21.7983 15.8237 21.0264 15.0517C20.2545 14.2798 19.2076 13.8461 18.1159 13.8461ZM18.1159 21.3302C17.4499 21.3302 16.7988 21.1327 16.245 20.7626C15.6912 20.3926 15.2595 19.8666 15.0047 19.2512C14.7498 18.6358 14.6831 17.9586 14.813 17.3053C14.943 16.652 15.2637 16.0519 15.7347 15.5809C16.2056 15.1099 16.8057 14.7892 17.459 14.6592C18.1122 14.5293 18.7893 14.596 19.4047 14.8509C20.02 15.1058 20.546 15.5374 20.916 16.0913C21.2861 16.6451 21.4836 17.2963 21.4836 17.9624C21.4836 18.8556 21.1288 19.7122 20.4972 20.3438C19.8657 20.9754 19.0091 21.3302 18.1159 21.3302V21.3302ZM22.2319 8.98145H13.9999C12.7098 8.98145 11.4726 9.49397 10.5603 10.4063C9.64808 11.3186 9.13559 12.5559 9.13559 13.8461V22.0786C9.13559 22.7175 9.26141 23.35 9.50587 23.9402C9.75032 24.5304 10.1086 25.0667 10.5603 25.5185C11.4726 26.4308 12.7098 26.9433 13.9999 26.9433H22.2319C22.8707 26.9433 23.5033 26.8174 24.0935 26.573C24.6836 26.3285 25.2199 25.9702 25.6716 25.5185C26.1233 25.0667 26.4816 24.5304 26.726 23.9402C26.9705 23.35 27.0963 22.7175 27.0963 22.0786V13.8461C27.0963 13.2073 26.9705 12.5747 26.726 11.9845C26.4816 11.3943 26.1233 10.858 25.6716 10.4063C25.2199 9.95455 24.6836 9.59622 24.0935 9.35175C23.5033 9.10727 22.8707 8.98145 22.2319 8.98145V8.98145ZM26.3479 22.0786C26.3479 23.1703 25.9143 24.2173 25.1424 24.9892C24.3705 25.7612 23.3236 26.1949 22.2319 26.1949H13.9999C12.9083 26.1949 11.8614 25.7612 11.0895 24.9892C10.3176 24.2173 9.88395 23.1703 9.88395 22.0786V13.8461C9.88395 12.7544 10.3176 11.7074 11.0895 10.9355C11.8614 10.1635 12.9083 9.72986 13.9999 9.72986H22.2319C23.3236 9.72986 24.3705 10.1635 25.1424 10.9355C25.9143 11.7074 26.3479 12.7544 26.3479 13.8461V22.0786ZM23.7287 13.0977C23.7287 13.2457 23.6848 13.3904 23.6025 13.5135C23.5203 13.6366 23.4034 13.7325 23.2667 13.7891C23.1299 13.8458 22.9795 13.8606 22.8343 13.8317C22.6891 13.8029 22.5558 13.7316 22.4511 13.6269C22.3465 13.5222 22.2752 13.3889 22.2463 13.2437C22.2174 13.0985 22.2323 12.948 22.2889 12.8113C22.3455 12.6745 22.4415 12.5577 22.5645 12.4754C22.6876 12.3932 22.8323 12.3493 22.9803 12.3493C23.1788 12.3493 23.3691 12.4281 23.5095 12.5685C23.6498 12.7088 23.7287 12.8992 23.7287 13.0977Z" fill="#006EFF"/>
<path d="M18.1552 0C8.23083 0 0.155243 8.07384 0.155243 18C0.155243 27.9262 8.23083 36 18.1552 36C28.0797 36 36.1552 27.9262 36.1552 18C36.1552 8.07384 28.0797 0 18.1552 0ZM18.1552 34.801C8.89201 34.801 1.35637 27.2638 1.35637 18C1.35637 8.73619 8.89201 1.19895 18.1552 1.19895C27.4185 1.19895 34.9541 8.73619 34.9541 18C34.9541 27.2638 27.4185 34.801 18.1552 34.801Z" fill="#006EFF"/>
</svg>
