<svg width="37" height="36" viewBox="0 0 37 36" fill="none" xmlns="http://www.w3.org/2000/svg">
<path d="M33.1552 18C33.1552 9.7155 26.4397 3 18.1552 3C9.87074 3 3.15524 9.7155 3.15524 18C3.15524 26.2845 9.87074 33 18.1552 33" stroke="#006EFF" stroke-width="1.5" stroke-linecap="round" stroke-linejoin="round"/>
<path d="M16.6552 32.9252C16.6552 32.9252 12.1552 27.0002 12.1552 18.0002C12.1552 9.0002 16.6552 3.0752 16.6552 3.0752M19.6552 3.0752C19.6552 3.0752 24.1552 9.0002 24.1552 18.0002L19.6552 3.0752Z" stroke="#006EFF" stroke-width="1.5" stroke-linecap="round" stroke-linejoin="round"/>
<path d="M4.10025 12.75H32.2103M4.10025 23.25H18.1553H4.10025Z" stroke="#006EFF" stroke-width="1.5" stroke-linecap="round" stroke-linejoin="round"/>
<path d="M32.9737 26.8755C33.7147 27.3315 33.6682 28.44 32.9062 28.527L29.0557 28.9635L27.3292 32.4315C26.9872 33.12 25.9297 32.7825 25.7542 31.9305L23.8717 22.7565C23.7232 22.0365 24.3712 21.5835 24.9967 21.969L32.9737 26.8755V26.8755Z" stroke="#006EFF" stroke-width="1.5"/>
</svg>
