<svg width="16" height="16" viewBox="0 0 16 16" fill="none" xmlns="http://www.w3.org/2000/svg">
<path d="M1.87556 10.3113L1.03111 13.9557C1.00198 14.089 1.00298 14.227 1.03403 14.3598C1.06509 14.4926 1.12542 14.6168 1.21061 14.7232C1.2958 14.8297 1.4037 14.9158 1.52643 14.9753C1.64917 15.0347 1.78363 15.066 1.92 15.0668C1.98354 15.0733 2.04757 15.0733 2.11111 15.0668L5.77778 14.2224L12.8178 7.20906L8.88889 3.28906L1.87556 10.3113Z" fill="#006EFF"/>
<path d="M15.0311 3.69766L12.4089 1.07543C12.2365 0.903907 12.0032 0.807617 11.76 0.807617C11.5168 0.807617 11.2835 0.903907 11.1111 1.07543L9.65332 2.53321L13.5778 6.45766L15.0355 4.99988C15.1209 4.91414 15.1884 4.81241 15.2344 4.70053C15.2803 4.58865 15.3038 4.4688 15.3034 4.34785C15.3029 4.22689 15.2787 4.10721 15.232 3.99564C15.1853 3.88407 15.117 3.78281 15.0311 3.69766Z" fill="#006EFF"/>
</svg>
