<svg width="24" height="24" viewBox="0 0 24 24" fill="none" xmlns="http://www.w3.org/2000/svg">
<path d="M18.7411 11.3416C19.0863 11.7931 19.0863 12.4026 18.7411 12.8533C17.6539 14.2726 15.0455 17.1949 12.0001 17.1949C8.95475 17.1949 6.34631 14.2726 5.2591 12.8533C5.09116 12.6371 5 12.3712 5 12.0974C5 11.8237 5.09116 11.5578 5.2591 11.3416C6.34631 9.92229 8.95475 7 12.0001 7C15.0455 7 17.6539 9.92229 18.7411 11.3416V11.3416Z" stroke="#006EFF" stroke-linecap="round" stroke-linejoin="round"/>
<path d="M12.0002 14.2823C13.2067 14.2823 14.1848 13.3042 14.1848 12.0977C14.1848 10.8912 13.2067 9.91309 12.0002 9.91309C10.7936 9.91309 9.81555 10.8912 9.81555 12.0977C9.81555 13.3042 10.7936 14.2823 12.0002 14.2823Z" stroke="#006EFF" stroke-linecap="round" stroke-linejoin="round"/>
<rect x="0.5" y="0.5" width="23" height="23" rx="3.5" stroke="#006EFF"/>
</svg>
